<svg width="256" height="256" viewBox="0 0 256 256" fill="none" xmlns="http://www.w3.org/2000/svg">
  <rect width="256" height="256" rx="64" fill="#F5F0E8"/>
  <path d="M63 176C63 146.94 86.58 123 115.5 123H148.5C177.42 123 201 146.94 201 176V184C201 198.359 189.359 210 175 210H89C74.6406 210 63 198.359 63 184V176Z" fill="#171717" fill-opacity="0.95"/>
  <path d="M147 37L179 70L109 140L82 141L83 114L147 37Z" fill="#1F1F1F"/>
  <path d="M179 70L205 96L132 169L108 140L179 70Z" fill="#2B2B2B"/>
  <path d="M82 141L109 140L139 170L114 196L79 196C74.5817 196 71 192.418 71 188V152L82 141Z" fill="#0F0F0F"/>
  <circle cx="181" cy="84" r="12" fill="#F5F0E8"/>
  <circle cx="78" cy="192" r="14" fill="#0C0C0C"/>
</svg>
